<svg t="1590850406658" class="icon" viewBox="0 0 1024 1024" version="1.1" xmlns="http://www.w3.org/2000/svg" p-id="1036" width="560" height="560"><path d="M512 1021.44c281.35424 0 509.44-228.08576 509.44-509.44S793.35424 2.56 512 2.56 2.56 230.64576 2.56 512s228.08576 509.44 509.44 509.44z m-1.85856-789.20704l302.62784 133.71904-301.1072 173.36832-302.62784-174.88896 301.1072-132.1984zM199.9104 470.8864c3.04128-7.6032 13.68576-9.12384 21.28896-6.08256l290.46272 167.28064 290.46272-165.76c7.6032-4.56192 16.72704-1.52064 21.28896 6.08256 4.56192 7.6032 1.52064 16.72704-6.08256 21.28896l-305.67424 174.88896-305.664-176.4096c-7.6032-4.56192-9.12384-13.68576-6.08256-21.28896z m-0.01024 123.18208c3.05152-7.6032 13.696-10.6496 21.2992-6.08256l290.46272 167.28064 290.46272-167.28064c7.6032-4.56192 16.72704-1.52064 21.28896 6.08256s1.52064 16.72704-6.08256 21.28896l-305.67424 176.4096-305.67424-176.4096c-7.6032-4.56192-9.12384-13.68576-6.08256-21.28896z" fill="#2196f3" p-id="1037" data-spm-anchor-id="a313x.7781069.0.i5" class=""></path></svg>